<?xml version="1.0" encoding="UTF-8" standalone="no"?>
<!-- Created with Inkscape (http://www.inkscape.org/) -->

<svg
   width="210mm"
   height="297mm"
   viewBox="0 0 210 297"
   version="1.1"
   id="svg8"
   inkscape:version="1.1.1 (26b7af14f2, 2022-01-19)"
   sodipodi:docname="HA.svg"
   inkscape:export-filename="/mnt/sda1/Andris/Programozas/py/branen/branen_manim_core/cards/HA.png"
   inkscape:export-xdpi="96"
   inkscape:export-ydpi="96"
   xmlns:inkscape="http://www.inkscape.org/namespaces/inkscape"
   xmlns:sodipodi="http://sodipodi.sourceforge.net/DTD/sodipodi-0.dtd"
   xmlns="http://www.w3.org/2000/svg"
   xmlns:svg="http://www.w3.org/2000/svg"
   xmlns:rdf="http://www.w3.org/1999/02/22-rdf-syntax-ns#"
   xmlns:cc="http://creativecommons.org/ns#"
   xmlns:dc="http://purl.org/dc/elements/1.1/">
  <defs
     id="defs2">
    <inkscape:path-effect
       effect="fillet_chamfer"
       id="path-effect351"
       is_visible="true"
       lpeversion="1"
       satellites_param="F,0,0,1,0,0,0,1 @ F,0,0,1,0,0,0,1 @ F,0,0,1,0,0,0,1 @ F,0,0,1,0,1.7401289,0,1"
       unit="px"
       method="auto"
       mode="F"
       radius="0"
       chamfer_steps="1"
       flexible="false"
       use_knot_distance="true"
       apply_no_radius="true"
       apply_with_radius="true"
       only_selected="false"
       hide_knots="false" />
    <inkscape:path-effect
       effect="fillet_chamfer"
       id="path-effect349"
       is_visible="true"
       lpeversion="1"
       satellites_param="F,0,0,1,0,0,0,1 @ F,0,0,1,0,12.136514,0,1 @ F,0,0,1,0,0,0,1 @ F,0,0,1,0,0,0,1"
       unit="px"
       method="auto"
       mode="F"
       radius="0"
       chamfer_steps="1"
       flexible="false"
       use_knot_distance="true"
       apply_no_radius="true"
       apply_with_radius="true"
       only_selected="false"
       hide_knots="false" />
    <inkscape:path-effect
       effect="fillet_chamfer"
       id="path-effect328"
       is_visible="true"
       lpeversion="1"
       satellites_param="F,0,0,1,0,0,0,1 @ F,0,0,1,0,12.136514,0,1 @ F,0,0,1,0,0,0,1 @ F,0,0,1,0,0,0,1"
       unit="px"
       method="auto"
       mode="F"
       radius="0"
       chamfer_steps="1"
       flexible="false"
       use_knot_distance="true"
       apply_no_radius="true"
       apply_with_radius="true"
       only_selected="false"
       hide_knots="false" />
    <inkscape:path-effect
       effect="fillet_chamfer"
       id="path-effect166"
       is_visible="true"
       lpeversion="1"
       satellites_param="F,0,0,1,0,0,0,1 @ F,0,0,1,0,0,0,1 @ F,0,0,1,0,12.136514,0,1 @ F,0,0,1,0,0,0,1"
       unit="px"
       method="auto"
       mode="F"
       radius="0"
       chamfer_steps="1"
       flexible="false"
       use_knot_distance="true"
       apply_no_radius="true"
       apply_with_radius="true"
       only_selected="false"
       hide_knots="false" />
    <inkscape:path-effect
       effect="fillet_chamfer"
       id="path-effect145"
       is_visible="true"
       lpeversion="1"
       satellites_param="F,0,0,1,0,12.13651,0,1 @ F,0,0,1,0,0,0,1 @ F,0,0,1,0,0,0,1 @ F,0,0,1,0,0,0,1"
       unit="px"
       method="auto"
       mode="F"
       radius="0"
       chamfer_steps="1"
       flexible="false"
       use_knot_distance="true"
       apply_no_radius="true"
       apply_with_radius="true"
       only_selected="false"
       hide_knots="false" />
    <inkscape:path-effect
       effect="bspline"
       id="path-effect896"
       is_visible="true"
       weight="33.333333"
       steps="2"
       helper_size="0"
       apply_no_weight="true"
       apply_with_weight="true"
       only_selected="false" />
    <inkscape:path-effect
       effect="bounding_box"
       id="path-effect894"
       is_visible="true"
       linkedpath=""
       visualbounds="false" />
    <linearGradient
       id="linearGradient4527"
       inkscape:swatch="gradient">
      <stop
         style="stop-color:#ff0000;stop-opacity:1;"
         offset="0"
         id="stop4523" />
      <stop
         style="stop-color:#ff0000;stop-opacity:0;"
         offset="1"
         id="stop4525" />
    </linearGradient>
    <inkscape:path-effect
       effect="fillet_chamfer"
       id="path-effect1427"
       is_visible="true"
       lpeversion="1"
       satellites_param="F,0,0,1,0,11.90625,0,1 @ F,0,0,1,0,11.90625,0,1 @ F,0,0,1,0,11.90625,0,1 @ F,0,0,1,0,11.90625,0,1"
       unit="px"
       method="auto"
       mode="F"
       radius="45"
       chamfer_steps="1"
       flexible="false"
       use_knot_distance="true"
       apply_no_radius="true"
       apply_with_radius="true"
       only_selected="false"
       hide_knots="false" />
  </defs>
  <sodipodi:namedview
     id="base"
     pagecolor="#ffffff"
     bordercolor="#666666"
     borderopacity="1.0"
     inkscape:pageopacity="0.0"
     inkscape:pageshadow="2"
     inkscape:zoom="0.98994949"
     inkscape:cx="249.0026"
     inkscape:cy="601.04077"
     inkscape:document-units="mm"
     inkscape:current-layer="layer1"
     showgrid="false"
     inkscape:window-width="1920"
     inkscape:window-height="1043"
     inkscape:window-x="1920"
     inkscape:window-y="0"
     inkscape:window-maximized="1"
     inkscape:pagecheckerboard="1"
     inkscape:lockguides="false"
     inkscape:snap-bbox="false" />
  <metadata
     id="metadata5">
    <rdf:RDF>
      <cc:Work
         rdf:about="">
        <dc:format>image/svg+xml</dc:format>
        <dc:type
           rdf:resource="http://purl.org/dc/dcmitype/StillImage" />
        <dc:title />
      </cc:Work>
    </rdf:RDF>
  </metadata>
  <g
     inkscape:label="Layer 1"
     inkscape:groupmode="layer"
     id="layer1">
    <path
       id="rect875-3"
       style="fill:#ff0000;stroke:#ff0000;stroke-width:1.0629;stroke-miterlimit:4;stroke-dasharray:none;stroke-opacity:1"
       d="m 102.379,142.19696 a 7.4218366,7.4218366 0 0 0 -5.04713,2.17104 7.4218311,7.4218311 0 0 0 0,10.49585 l 5.2481,5.24809 4.49533,4.49565 a 1.0641402,1.0641402 0 0 0 1.50518,0 l 4.49536,-4.49565 5.24807,-5.24809 a 7.4218366,7.4218366 0 0 0 0,-10.49585 7.4218366,7.4218366 0 0 0 -10.49616,0 7.4218366,7.4218366 0 0 0 -5.44875,-2.17104 z" />
    <path
       id="rect875-6"
       style="fill:#ff0000;stroke:#ff0000;stroke-width:0.455911;stroke-miterlimit:4;stroke-dasharray:none;stroke-opacity:1"
       d="m 143.44334,209.14539 a 3.183444,3.183444 0 0 0 2.16485,-0.93123 3.1834417,3.1834417 0 0 0 0,-4.50197 l -2.25106,-2.25107 -1.92818,-1.9283 a 0.45644102,0.45644102 0 0 0 -0.64562,0 l -1.92818,1.9283 -2.25106,2.25107 a 3.183444,3.183444 0 0 0 0,4.50197 3.183444,3.183444 0 0 0 4.50212,0 3.183444,3.183444 0 0 0 2.33713,0.93123 z" />
    <path
       id="rect875-6-5"
       style="fill:#ff0000;stroke:#ff0000;stroke-width:0.455911;stroke-miterlimit:4;stroke-dasharray:none;stroke-opacity:1"
       d="m 70.330341,97.847426 a 3.183444,3.183444 0 0 0 -2.16485,0.93123 3.1834417,3.1834417 0 0 0 0,4.501974 l 2.25106,2.25107 1.92818,1.92829 a 0.45644102,0.45644102 0 0 0 0.64562,0 l 1.92818,-1.92829 2.25106,-2.25107 a 3.183444,3.183444 0 0 0 0,-4.501974 3.183444,3.183444 0 0 0 -4.50212,0 3.183444,3.183444 0 0 0 -2.33713,-0.93123 z" />
    <g
       aria-label="A"
       id="text2804"
       style="font-size:17.1082px;line-height:1.25;letter-spacing:0px;word-spacing:0px;fill:#ff0000;stroke-width:0.427706">
      <path
         d="m 72.853488,81.844561 -2.28889,6.206735 h 4.586134 z m -0.952312,-1.662369 h 1.912977 l 4.753206,12.471945 h -1.754258 l -1.136092,-3.199434 h -5.621982 l -1.136091,3.199434 h -1.77932 z"
         id="path14920" />
    </g>
    <g
       aria-label="A"
       transform="scale(-1)"
       id="text2804-7"
       style="font-size:17.1082px;line-height:1.25;letter-spacing:0px;word-spacing:0px;fill:#ff0000;stroke-width:0.427706">
      <path
         d="m -141.02276,-224.79252 -2.28889,6.20674 h 4.58614 z m -0.95231,-1.66237 h 1.91298 l 4.75321,12.47195 h -1.75426 l -1.13609,-3.19943 h -5.62199 l -1.13609,3.19943 h -1.77932 z"
         id="path14941" />
    </g>
    <path
       style="fill:none;stroke:#ff0000;stroke-width:1px;stroke-linecap:butt;stroke-linejoin:miter;stroke-opacity:1"
       d="m 58.28,83.56425 v 137.99639 a 11.90625,11.90625 45 0 0 11.90625,11.90625 h 75.19651 a 11.90625,11.90625 135 0 0 11.90625,-11.90625 V 83.56425 A 11.90625,11.90625 45 0 0 145.38276,71.658 H 70.18625 A 11.90625,11.90625 135 0 0 58.28,83.56425 Z"
       id="path1425"
       inkscape:original-d="m 58.28,71.658 v 161.80889 h 99.00901 V 71.658 Z"
       inkscape:path-effect="#path-effect1427" />
  </g>
</svg>
