<?xml version="1.0" encoding="UTF-8" standalone="no"?>
<!-- Created with Inkscape (http://www.inkscape.org/) -->

<svg
   width="1920"
   height="1080"
   viewBox="0 0 1920 1080"
   version="1.1"
   id="svg5"
   inkscape:version="1.1.1 (26b7af14f2, 2022-01-19)"
   sodipodi:docname="HQ.svg"
   inkscape:export-filename="/mnt/sda1/Andris/Programozas/py/branen/branen_manim_core/cards/HQ.png"
   inkscape:export-xdpi="96"
   inkscape:export-ydpi="96"
   xmlns:inkscape="http://www.inkscape.org/namespaces/inkscape"
   xmlns:sodipodi="http://sodipodi.sourceforge.net/DTD/sodipodi-0.dtd"
   xmlns="http://www.w3.org/2000/svg"
   xmlns:svg="http://www.w3.org/2000/svg">
  <sodipodi:namedview
     id="namedview7"
     pagecolor="#505050"
     bordercolor="#eeeeee"
     borderopacity="1"
     inkscape:pageshadow="0"
     inkscape:pageopacity="0"
     inkscape:pagecheckerboard="0"
     inkscape:document-units="px"
     showgrid="false"
     inkscape:zoom="0.696875"
     inkscape:cx="903.31839"
     inkscape:cy="497.93722"
     inkscape:window-width="1920"
     inkscape:window-height="1043"
     inkscape:window-x="1920"
     inkscape:window-y="0"
     inkscape:window-maximized="1"
     inkscape:current-layer="g41787" />
  <defs
     id="defs2">
    <inkscape:path-effect
       effect="fillet_chamfer"
       id="path-effect1427"
       is_visible="true"
       lpeversion="1"
       satellites_param="F,0,0,1,0,11.90625,0,1 @ F,0,0,1,0,11.90625,0,1 @ F,0,0,1,0,11.90625,0,1 @ F,0,0,1,0,11.90625,0,1"
       unit="px"
       method="auto"
       mode="F"
       radius="45"
       chamfer_steps="1"
       flexible="false"
       use_knot_distance="true"
       apply_no_radius="true"
       apply_with_radius="true"
       only_selected="false"
       hide_knots="false" />
  </defs>
  <g
     inkscape:label="Layer 1"
     inkscape:groupmode="layer"
     id="layer1">
    <g
       id="g41787"
       transform="matrix(3.7795276,0,0,3.7795276,508.61503,-28.724798)">
      <path
         id="rect875-6"
         style="fill:#ff0000;stroke:#ff0000;stroke-width:0.455911;stroke-miterlimit:4;stroke-dasharray:none;stroke-opacity:1"
         d="m 144.21094,196.34586 a 3.183444,3.183444 0 0 0 2.16485,-0.93123 3.1834417,3.1834417 0 0 0 0,-4.50197 l -2.25106,-2.25107 -1.92818,-1.9283 a 0.45644102,0.45644102 0 0 0 -0.64562,0 l -1.92818,1.9283 -2.25106,2.25107 a 3.183444,3.183444 0 0 0 0,4.50197 3.183444,3.183444 0 0 0 4.50211,0 3.183444,3.183444 0 0 0 2.33714,0.93123 z" />
      <path
         id="rect875-6-5"
         style="fill:#ff0000;stroke:#ff0000;stroke-width:0.455911;stroke-miterlimit:4;stroke-dasharray:none;stroke-opacity:1"
         d="m 70.479217,86.435542 a 3.183444,3.183444 0 0 0 -2.16485,0.93123 3.1834417,3.1834417 0 0 0 0,4.501974 l 2.25106,2.25107 1.92818,1.92829 a 0.45644102,0.45644102 0 0 0 0.64562,0 l 1.92818,-1.92829 2.25106,-2.25107 a 3.183444,3.183444 0 0 0 0,-4.501974 3.183444,3.183444 0 0 0 -4.50212,0 3.183444,3.183444 0 0 0 -2.33713,-0.93123 z" />
      <path
         id="rect875-6-5-3"
         style="fill:#ff0000;stroke:#ff0000;stroke-width:0.628649;stroke-miterlimit:4;stroke-dasharray:none;stroke-opacity:1"
         d="m 90.452855,129.81811 a 4.1606986,4.6310997 0 0 0 -2.829417,1.3547 4.1606956,4.6310965 0 0 0 0,6.54924 l 2.942092,3.27474 2.520093,2.80515 a 0.5965594,0.66400537 0 0 0 0.843811,0 l 2.520092,-2.80515 2.942093,-3.27474 a 4.1606986,4.6310997 0 0 0 0,-6.54924 4.1606986,4.6310997 0 0 0 -5.884182,0 4.1606986,4.6310997 0 0 0 -3.054582,-1.3547 z" />
      <g
         aria-label="Q "
         id="text2804"
         style="font-size:16.4544px;line-height:1.25;letter-spacing:0px;word-spacing:0px;fill:#ff0000;stroke-width:0.41136">
        <path
           d="m 72.367361,69.748554 q -1.767562,0 -2.812031,1.317637 -1.036434,1.317638 -1.036434,3.591366 0,2.265693 1.036434,3.583331 1.044469,1.317637 2.812031,1.317637 1.767563,0 2.795963,-1.317637 1.036434,-1.317638 1.036434,-3.583331 0,-2.273728 -1.036434,-3.591366 -1.0284,-1.317637 -2.795963,-1.317637 z m 2.273728,10.677683 2.137144,2.338003 h -1.960387 l -1.775597,-1.920215 q -0.265134,0.01607 -0.409753,0.0241 -0.136585,0.008 -0.265135,0.008 -2.530827,0 -4.049324,-1.687218 -1.510463,-1.695253 -1.510463,-4.531387 0,-2.844169 1.510463,-4.531388 1.518497,-1.695253 4.049324,-1.695253 2.522794,0 4.033257,1.695253 1.510462,1.687219 1.510462,4.531388 0,2.088937 -0.843609,3.575296 -0.835575,1.48636 -2.426382,2.193384 z"
           id="path24135" />
      </g>
      <g
         aria-label="Q"
         transform="scale(-1)"
         id="text2804-7"
         style="font-size:17.1082px;line-height:1.25;letter-spacing:0px;word-spacing:0px;fill:#ff0000;stroke-width:0.427706">
        <path
           d="m -141.9738,-213.12207 q -1.83779,0 -2.92376,1.36999 -1.07762,1.36999 -1.07762,3.73407 0,2.35572 1.07762,3.72571 1.08597,1.36999 2.92376,1.36999 1.8378,0 2.90706,-1.36999 1.07762,-1.36999 1.07762,-3.72571 0,-2.36408 -1.07762,-3.73407 -1.06926,-1.36999 -2.90706,-1.36999 z m 2.36407,11.10195 2.22207,2.4309 h -2.03829 l -1.84614,-1.99651 q -0.27567,0.0167 -0.42604,0.0251 -0.14201,0.008 -0.27567,0.008 -2.63139,0 -4.21022,-1.75425 -1.57048,-1.76262 -1.57048,-4.71144 0,-2.95718 1.57048,-4.71144 1.57883,-1.76261 4.21022,-1.76261 2.62304,0 4.19352,1.76261 1.57047,1.75426 1.57047,4.71144 0,2.17194 -0.87712,3.71736 -0.86878,1.54541 -2.5228,2.28053 z"
           id="path24174" />
      </g>
      <path
         style="fill:#ff0000;stroke:#ff0000;stroke-width:0.20142px;stroke-linecap:butt;stroke-linejoin:miter;stroke-opacity:1"
         d="M 83.593754,149.80652 H 131.9376 c 1.52448,0 2.75176,1.22729 2.75176,2.75176 v 1.58235 c 0,1.52448 -1.26081,3.06976 -2.75176,2.75177 -15.10525,-3.22167 -30.75217,-4.71441 -48.343846,0 -1.472516,0.39462 -2.751764,-1.22729 -2.751764,-2.75177 v -1.58235 c 0,-1.52447 1.227287,-2.75176 2.751764,-2.75176 z"
         id="path11754" />
      <path
         style="fill:#ff0000;stroke:#ff0000;stroke-width:0.20142px;stroke-linecap:butt;stroke-linejoin:miter;stroke-opacity:1"
         d="m 86.16407,144.38789 h 43.99567 v 5.29243 H 86.16407 Z"
         id="path11752" />
      <path
         id="path20263"
         style="fill:#ff0000;stroke:#ff0000;stroke-width:1.04993;stroke-miterlimit:4;stroke-dasharray:none;stroke-opacity:1"
         d="m 103.12865,115.94787 a 6.9489331,7.7345669 0 0 0 -4.725497,2.26253 6.9489281,7.7345617 0 0 0 0,10.93813 l 4.913667,5.46926 4.20892,4.68497 a 0.99633542,1.1089794 0 0 0 1.40927,0 l 4.20889,-4.68497 4.9137,-5.46926 a 6.9489331,7.7345669 0 0 0 0,-10.93813 6.9489331,7.7345669 0 0 0 -9.82739,0 6.9489331,7.7345669 0 0 0 -5.10156,-2.26253 z" />
      <path
         id="path20265"
         style="fill:#ff0000;stroke:#ff0000;stroke-width:0.628649;stroke-miterlimit:4;stroke-dasharray:none;stroke-opacity:1"
         d="m 119.79129,129.80233 a 4.1606986,4.6310997 0 0 0 -2.82942,1.3547 4.1606956,4.6310965 0 0 0 0,6.54924 l 2.94209,3.27474 2.5201,2.80515 a 0.5965594,0.66400537 0 0 0 0.84381,0 l 2.52009,-2.80515 2.94209,-3.27474 a 4.1606986,4.6310997 0 0 0 0,-6.54924 4.1606986,4.6310997 0 0 0 -5.88418,0 4.1606986,4.6310997 0 0 0 -3.05458,-1.3547 z" />
      <path
         style="fill:none;stroke:#ff0000;stroke-width:1px;stroke-linecap:butt;stroke-linejoin:miter;stroke-opacity:1"
         d="M 58.4321,72.155198 V 210.15158 a 11.90625,11.90625 45 0 0 11.90625,11.90625 h 75.1965 A 11.90625,11.90625 135 0 0 157.4411,210.15158 V 72.155198 A 11.90625,11.90625 45 0 0 145.53485,60.248948 H 70.33835 A 11.90625,11.90625 135 0 0 58.4321,72.155198 Z"
         id="path1425"
         inkscape:path-effect="#path-effect1427"
         inkscape:original-d="M 58.4321,60.248948 V 222.05783 h 99.009 V 60.248948 Z" />
    </g>
  </g>
</svg>
