<?xml version="1.0" encoding="UTF-8" standalone="no"?>
<!-- Created with Inkscape (http://www.inkscape.org/) -->

<svg
   width="210mm"
   height="297mm"
   viewBox="0 0 210 297"
   version="1.1"
   id="svg29"
   xmlns="http://www.w3.org/2000/svg"
   xmlns:svg="http://www.w3.org/2000/svg">
  <style
     id="style17263">.hearts {  }
</style>
  <defs
     id="defs26">
    <linearGradient
       id="linearGradient4527">
      <stop
         style="stop-color:#ff0000;stop-opacity:1;"
         offset="0"
         id="stop4523" />
      <stop
         style="stop-color:#ff0000;stop-opacity:0;"
         offset="1"
         id="stop4525" />
    </linearGradient>
    <marker
       id="Arrow2Sstart"
       orient="auto"
       refX="0"
       refY="0"
       style="overflow:visible">
      <path
         d="M 8.72,4.03 -2.21,0.02 8.72,-4 c -1.75,2.37 -1.74,5.62 0,8.03 z"
         id="Arrow2SstartPath"
         style="fill:#000000;fill-opacity:1;stroke:none"
         transform="matrix(0.3,0,0,0.3,-0.69,0)" />
    </marker>
    <marker
       id="Arrow2Send"
       orient="auto"
       refX="0"
       refY="0"
       style="overflow:visible">
      <path
         d="M 8.72,4.03 -2.21,0.02 8.72,-4 c -1.75,2.37 -1.74,5.62 0,8.03 z"
         id="Arrow2SendPath"
         style="fill:#000000;fill-opacity:1;stroke:none"
         transform="matrix(-0.3,0,0,-0.3,0.69,0)" />
    </marker>
  </defs>
  <g
     id="layer1">
    <g
       id="layer1-3"
       transform="translate(-3.5104407,-49.297839)">
      <path
         id="rect875-6-5-5"
         style="fill:#ff0000;stroke:#ff0000;stroke-width:0.652613;stroke-miterlimit:4;stroke-dasharray:none;stroke-opacity:1"
         d="m 82.185793,148.5065 a 4.5569366,4.5569366 0 0 0 -3.098876,1.33301 4.5569333,4.5569333 0 0 0 0,6.44433 l 3.222279,3.2223 2.760085,2.76025 a 0.65337188,0.65337188 0 0 0 0.924178,0 l 2.760085,-2.76025 3.222281,-3.2223 a 4.5569366,4.5569366 0 0 0 0,-6.44433 4.5569366,4.5569366 0 0 0 -6.444551,0 4.5569366,4.5569366 0 0 0 -3.345481,-1.33301 z" />
      <path
         style="fill:none;stroke:#ff0000;stroke-width:1px;stroke-linecap:butt;stroke-linejoin:miter;stroke-opacity:1"
         d="m 59.271564,135.46533 v 137.99639 a 11.90625,11.90625 45 0 0 11.90625,11.90625 h 75.196516 a 11.90625,11.90625 135 0 0 11.90625,-11.90625 V 135.46533 A 11.90625,11.90625 45 0 0 146.37433,123.55908 H 71.177814 a 11.90625,11.90625 135 0 0 -11.90625,11.90625 z"
         id="path1425" />
      <path
         id="rect875-6-5-3"
         style="fill:#ff0000;stroke:#ff0000;stroke-width:0.652613;stroke-miterlimit:4;stroke-dasharray:none;stroke-opacity:1"
         d="m 129.81079,148.5065 a 4.5569366,4.5569366 0 0 0 -3.09887,1.33301 4.5569333,4.5569333 0 0 0 0,6.44433 l 3.22227,3.22229 2.76009,2.76025 a 0.65337188,0.65337188 0 0 0 0.92418,0 l 2.76009,-2.76025 3.22229,-3.22229 a 4.5569366,4.5569366 0 0 0 0,-6.44433 4.5569366,4.5569366 0 0 0 -6.44457,0 4.5569366,4.5569366 0 0 0 -3.34548,-1.33301 z" />
      <path
         id="rect875-6-5-2"
         style="fill:#ff0000;stroke:#ff0000;stroke-width:0.652613;stroke-miterlimit:4;stroke-dasharray:none;stroke-opacity:1"
         d="m 105.9983,165.9965 a 4.5569366,4.5569366 0 0 0 -3.09888,1.33301 4.5569333,4.5569333 0 0 0 0,6.44434 l 3.22228,3.2223 2.76008,2.76025 a 0.65337188,0.65337188 0 0 0 0.92418,0 l 2.76009,-2.76025 3.22228,-3.2223 a 4.5569366,4.5569366 0 0 0 0,-6.44434 4.5569366,4.5569366 0 0 0 -6.44456,0 4.5569366,4.5569366 0 0 0 -3.34547,-1.33301 z" />
      <path
         id="rect875-6-5-9"
         style="fill:#ff0000;stroke:#ff0000;stroke-width:0.652613;stroke-miterlimit:4;stroke-dasharray:none;stroke-opacity:1"
         d="m 81.979361,184.0107 a 4.5569366,4.5569366 0 0 0 -3.098865,1.33301 4.5569333,4.5569333 0 0 0 0,6.44434 l 3.222281,3.22229 2.760084,2.76026 a 0.65337188,0.65337188 0 0 0 0.924177,0 l 2.760084,-2.76026 3.222282,-3.22229 a 4.5569366,4.5569366 0 0 0 0,-6.44434 4.5569366,4.5569366 0 0 0 -6.444562,0 4.5569366,4.5569366 0 0 0 -3.345481,-1.33301 z" />
      <path
         id="rect875-6-5-1"
         style="fill:#ff0000;stroke:#ff0000;stroke-width:0.652613;stroke-miterlimit:4;stroke-dasharray:none;stroke-opacity:1"
         d="m 128.51607,185.51189 a 4.5569366,4.5569366 0 0 0 -3.09888,1.33301 4.5569333,4.5569333 0 0 0 0,6.44434 l 3.22228,3.22229 2.76008,2.76025 a 0.65337188,0.65337188 0 0 0 0.92419,0 l 2.76008,-2.76025 3.22228,-3.22229 a 4.5569366,4.5569366 0 0 0 0,-6.44434 4.5569366,4.5569366 0 0 0 -6.44455,0 4.5569366,4.5569366 0 0 0 -3.34548,-1.33301 z" />
      <path
         id="rect875-6-5-5-3"
         style="fill:#ff0000;stroke:#ff0000;stroke-width:0.652613;stroke-miterlimit:4;stroke-dasharray:none;stroke-opacity:1"
         d="m 82.037022,258.49747 a 4.5569366,4.5569366 0 0 1 -3.098876,-1.333 4.5569333,4.5569333 0 0 1 0,-6.44433 l 3.22228,-3.2223 2.760085,-2.76025 a 0.65337188,0.65337188 0 0 1 0.924178,0 l 2.760084,2.76025 3.222281,3.2223 a 4.5569366,4.5569366 0 0 1 0,6.44433 4.5569366,4.5569366 0 0 1 -6.44455,0 4.5569366,4.5569366 0 0 1 -3.345482,1.333 z" />
      <path
         id="rect875-6-5-3-7"
         style="fill:#ff0000;stroke:#ff0000;stroke-width:0.652613;stroke-miterlimit:4;stroke-dasharray:none;stroke-opacity:1"
         d="m 129.81079,258.32876 a 4.5569366,4.5569366 0 0 1 -3.09887,-1.333 4.5569333,4.5569333 0 0 1 0,-6.44434 l 3.22227,-3.22229 2.76009,-2.76024 a 0.65337188,0.65337188 0 0 1 0.92418,0 l 2.76009,2.76024 3.22229,3.22229 a 4.5569366,4.5569366 0 0 1 0,6.44434 4.5569366,4.5569366 0 0 1 -6.44457,0 4.5569366,4.5569366 0 0 1 -3.34548,1.333 z" />
      <path
         id="rect875-6-5-2-5"
         style="fill:#ff0000;stroke:#ff0000;stroke-width:0.652613;stroke-miterlimit:4;stroke-dasharray:none;stroke-opacity:1"
         d="m 105.9983,242.1381 a 4.5569366,4.5569366 0 0 1 -3.09888,-1.333 4.5569333,4.5569333 0 0 1 0,-6.44434 l 3.22228,-3.2223 2.76008,-2.76026 a 0.65337188,0.65337188 0 0 1 0.92418,0 l 2.76009,2.76026 3.22228,3.2223 a 4.5569366,4.5569366 0 0 1 0,6.44434 4.5569366,4.5569366 0 0 1 -6.44456,0 4.5569366,4.5569366 0 0 1 -3.34547,1.333 z" />
      <path
         id="rect875-6-5-9-9"
         style="fill:#ff0000;stroke:#ff0000;stroke-width:0.652613;stroke-miterlimit:4;stroke-dasharray:none;stroke-opacity:1"
         d="m 82.093217,222.70515 a 4.5569366,4.5569366 0 0 1 -3.098866,-1.33301 4.5569333,4.5569333 0 0 1 0,-6.44433 l 3.222281,-3.22229 2.760085,-2.76025 a 0.65337188,0.65337188 0 0 1 0.924177,0 l 2.760084,2.76025 3.222282,3.22229 a 4.5569366,4.5569366 0 0 1 0,6.44433 4.5569366,4.5569366 0 0 1 -6.444562,0 4.5569366,4.5569366 0 0 1 -3.345481,1.33301 z" />
      <path
         id="rect875-6-5-2-3"
         style="fill:#ff0000;stroke:#ff0000;stroke-width:0.652613;stroke-miterlimit:4;stroke-dasharray:none;stroke-opacity:1"
         d="m 128.51607,222.6227 a 4.5569366,4.5569366 0 0 1 -3.09888,-1.333 4.5569333,4.5569333 0 0 1 0,-6.44436 l 3.22228,-3.22228 2.76008,-2.76026 a 0.65337188,0.65337188 0 0 1 0.92419,0 l 2.76008,2.76026 3.22228,3.22228 a 4.5569366,4.5569366 0 0 1 0,6.44436 4.5569366,4.5569366 0 0 1 -6.44455,0 4.5569366,4.5569366 0 0 1 -3.34548,1.333 z" />
      <g
         aria-label="10"
         transform="scale(0.8004059,1.2493661)"
         id="text27974"
         style="font-weight:bold;font-size:12.4761px;line-height:1.25;-inkscape-font-specification:'sans-serif Bold';letter-spacing:0px;word-spacing:0px;fill:#ff0000;stroke-width:0.379016">
        <path
           d="m 84.836097,111.87522 h 2.071227 v -5.87863 l -2.126054,0.43861 v -1.59606 l 2.113871,-0.43861 h 2.229615 v 7.47469 h 2.071228 v 1.62043 h -6.359887 z"
           id="path32515" />
        <path
           d="m 97.793453,108.93895 q 0,-1.70572 -0.322868,-2.40019 -0.316776,-0.70056 -1.072165,-0.70056 -0.755388,0 -1.078256,0.70056 -0.322868,0.69447 -0.322868,2.40019 0,1.72399 0.322868,2.43065 0.322868,0.70665 1.078256,0.70665 0.749297,0 1.072165,-0.70665 0.322868,-0.70666 0.322868,-2.43065 z m 2.345357,0.0183 q 0,2.26007 -0.974692,3.49062 -0.974695,1.22446 -2.765698,1.22446 -1.797094,0 -2.771789,-1.22446 -0.974696,-1.23055 -0.974696,-3.49062 0,-2.26617 0.974696,-3.49063 0.974695,-1.23055 2.771789,-1.23055 1.791003,0 2.765698,1.23055 0.974692,1.22446 0.974692,3.49063 z"
           id="path32517" />
      </g>
      <g
         aria-label="10"
         transform="scale(0.8004059,-1.2493661)"
         id="text27974-2"
         style="font-weight:bold;font-size:12.4761px;line-height:1.25;-inkscape-font-specification:'sans-serif Bold';letter-spacing:0px;word-spacing:0px;fill:#ff0000;stroke-width:0.379016">
        <path
           d="m 170.85291,-215.35769 h 2.07123 v -5.87863 l -2.12605,0.43861 v -1.59606 l 2.11387,-0.43861 h 2.22961 v 7.47469 h 2.07123 v 1.62043 h -6.35989 z"
           id="path32538" />
        <path
           d="m 183.81027,-218.29396 q 0,-1.70572 -0.32287,-2.40019 -0.31678,-0.70056 -1.07216,-0.70056 -0.75539,0 -1.07826,0.70056 -0.32287,0.69447 -0.32287,2.40019 0,1.72399 0.32287,2.43065 0.32287,0.70665 1.07826,0.70665 0.74929,0 1.07216,-0.70665 0.32287,-0.70666 0.32287,-2.43065 z m 2.34536,0.0183 q 0,2.26007 -0.9747,3.49062 -0.97469,1.22446 -2.76569,1.22446 -1.7971,0 -2.77179,-1.22446 -0.9747,-1.23055 -0.9747,-3.49062 0,-2.26617 0.9747,-3.49063 0.97469,-1.23055 2.77179,-1.23055 1.791,0 2.76569,1.23055 0.9747,1.22446 0.9747,3.49063 z"
           id="path32540" />
      </g>
    </g>
  </g>
</svg>
